<?xml version="1.0" encoding="UTF-8" standalone="no"?>
<!-- Created with Inkscape (http://www.inkscape.org/) -->

<svg
   xmlns:dc="http://purl.org/dc/elements/1.1/"
   xmlns:cc="http://creativecommons.org/ns#"
   xmlns:rdf="http://www.w3.org/1999/02/22-rdf-syntax-ns#"
   xmlns:svg="http://www.w3.org/2000/svg"
   xmlns="http://www.w3.org/2000/svg"
   xmlns:xlink="http://www.w3.org/1999/xlink"
   xmlns:sodipodi="http://sodipodi.sourceforge.net/DTD/sodipodi-0.dtd"
   xmlns:inkscape="http://www.inkscape.org/namespaces/inkscape"
   width="744.09448819"
   height="1052.3622047"
   id="svg2"
   version="1.1"
   inkscape:version="0.48.5 r10040"
   sodipodi:docname="banner.svg">
  <defs
     id="defs4">
    <linearGradient
       id="linearGradient4792"
       spreadMethod="pad"
       gradientTransform="matrix(0,124.30664,-124.30664,0,656.22949,405.16016)"
       gradientUnits="userSpaceOnUse"
       y2="0"
       x2="1"
       y1="0"
       x1="0">
      <stop
         id="stop4794"
         offset="0"
         style="stop-opacity:1;stop-color:#000000" />
      <stop
         id="stop4796"
         offset="1"
         style="stop-opacity:1;stop-color:#ffffff" />
    </linearGradient>
    <clipPath
       id="clipPath4784"
       clipPathUnits="userSpaceOnUse">
      <path
         id="path4786"
         d="m 514.459,529.467 283.541,0 0,-124.307 -283.541,0 0,124.307 z" />
    </clipPath>
    <linearGradient
       id="linearGradient4760"
       spreadMethod="pad"
       gradientTransform="matrix(0,91.345215,91.345215,0,703.20898,369.31934)"
       gradientUnits="userSpaceOnUse"
       y2="0"
       x2="1"
       y1="0"
       x1="0">
      <stop
         id="stop4762"
         offset="0"
         style="stop-opacity:1;stop-color:#000000" />
      <stop
         id="stop4764"
         offset="1"
         style="stop-opacity:1;stop-color:#ffffff" />
    </linearGradient>
    <clipPath
       id="clipPath4752"
       clipPathUnits="userSpaceOnUse">
      <path
         id="path4754"
         d="m 608.033,460.665 190.352,0 0,-91.346 -190.352,0 0,91.346 z" />
    </clipPath>
    <linearGradient
       id="linearGradient4728"
       spreadMethod="pad"
       gradientTransform="matrix(0,103.14111,-103.14111,0,297.86133,347.05664)"
       gradientUnits="userSpaceOnUse"
       y2="0"
       x2="1"
       y1="0"
       x1="0">
      <stop
         id="stop4730"
         offset="0"
         style="stop-opacity:1;stop-color:#000000" />
      <stop
         id="stop4732"
         offset="1"
         style="stop-opacity:1;stop-color:#ffffff" />
    </linearGradient>
    <clipPath
       id="clipPath4720"
       clipPathUnits="userSpaceOnUse">
      <path
         id="path4722"
         d="m 137.35,450.198 321.023,0 0,-103.141 -321.023,0 0,103.141 z" />
    </clipPath>
    <linearGradient
       id="linearGradient4696"
       spreadMethod="pad"
       gradientTransform="matrix(0,47.97168,47.97168,0,434.67773,412.73633)"
       gradientUnits="userSpaceOnUse"
       y2="0"
       x2="1"
       y1="0"
       x1="0">
      <stop
         id="stop4698"
         offset="0"
         style="stop-opacity:1;stop-color:#000000" />
      <stop
         id="stop4700"
         offset="1"
         style="stop-opacity:1;stop-color:#ffffff" />
    </linearGradient>
    <clipPath
       id="clipPath4688"
       clipPathUnits="userSpaceOnUse">
      <path
         id="path4690"
         d="m 360.024,460.708 149.308,0 0,-47.972 -149.308,0 0,47.972 z" />
    </clipPath>
    <linearGradient
       id="linearGradient4664"
       spreadMethod="pad"
       gradientTransform="matrix(0,66.320801,66.320801,0,121.76416,373.88477)"
       gradientUnits="userSpaceOnUse"
       y2="0"
       x2="1"
       y1="0"
       x1="0">
      <stop
         id="stop4666"
         offset="0"
         style="stop-opacity:1;stop-color:#000000" />
      <stop
         id="stop4668"
         offset="1"
         style="stop-opacity:1;stop-color:#ffffff" />
    </linearGradient>
    <clipPath
       id="clipPath4656"
       clipPathUnits="userSpaceOnUse">
      <path
         id="path4658"
         d="m 18.5698,440.206 206.3882,0 0,-66.321 -206.3882,0 0,66.321 z" />
    </clipPath>
    <linearGradient
       id="linearGradient4632"
       spreadMethod="pad"
       gradientTransform="matrix(-1.53e-5,215.91895,215.91895,1.53e-5,638.50879,421.72656)"
       gradientUnits="userSpaceOnUse"
       y2="0"
       x2="1"
       y1="0"
       x1="0">
      <stop
         id="stop4634"
         offset="0"
         style="stop-opacity:1;stop-color:#000000" />
      <stop
         id="stop4636"
         offset="1"
         style="stop-opacity:1;stop-color:#abadb0" />
    </linearGradient>
    <clipPath
       id="clipPath4624"
       clipPathUnits="userSpaceOnUse">
      <path
         id="path4626"
         d="m 479.018,637.646 318.982,0 0,-215.919 -318.982,0 0,215.919 z" />
    </clipPath>
    <linearGradient
       id="linearGradient4600"
       spreadMethod="pad"
       gradientTransform="matrix(0,157.6001,157.6001,0,134.50928,376.40723)"
       gradientUnits="userSpaceOnUse"
       y2="0"
       x2="1"
       y1="0"
       x1="0">
      <stop
         id="stop4602"
         offset="0"
         style="stop-opacity:1;stop-color:#000000" />
      <stop
         id="stop4604"
         offset="1"
         style="stop-opacity:1;stop-color:#ffffff" />
    </linearGradient>
    <clipPath
       id="clipPath4592"
       clipPathUnits="userSpaceOnUse">
      <path
         id="path4594"
         d="m -0.47998,534.008 269.97898,0 0,-157.601 -269.97898,0 0,157.601 z" />
    </clipPath>
    <linearGradient
       id="linearGradient4568"
       spreadMethod="pad"
       gradientTransform="matrix(0,124.30664,-124.30664,0,657.36426,250.54883)"
       gradientUnits="userSpaceOnUse"
       y2="0"
       x2="1"
       y1="0"
       x1="0">
      <stop
         id="stop4570"
         offset="0"
         style="stop-opacity:1;stop-color:#000000" />
      <stop
         id="stop4572"
         offset="1"
         style="stop-opacity:1;stop-color:#ffffff" />
    </linearGradient>
    <clipPath
       id="clipPath4560"
       clipPathUnits="userSpaceOnUse">
      <path
         id="path4562"
         d="m 515.594,374.855 283.541,0 0,-124.306 -283.541,0 0,124.306 z" />
    </clipPath>
    <linearGradient
       id="linearGradient4536"
       spreadMethod="pad"
       gradientTransform="matrix(0,91.345703,91.345703,0,704.34375,214.70801)"
       gradientUnits="userSpaceOnUse"
       y2="0"
       x2="1"
       y1="0"
       x1="0">
      <stop
         id="stop4538"
         offset="0"
         style="stop-opacity:1;stop-color:#000000" />
      <stop
         id="stop4540"
         offset="1"
         style="stop-opacity:1;stop-color:#ffffff" />
    </linearGradient>
    <clipPath
       id="clipPath4528"
       clipPathUnits="userSpaceOnUse">
      <path
         id="path4530"
         d="m 609.168,306.054 190.352,0 0,-91.346 -190.352,0 0,91.346 z" />
    </clipPath>
    <linearGradient
       id="linearGradient4504"
       spreadMethod="pad"
       gradientTransform="matrix(0,103.14063,-103.14063,0,451.46289,295.4873)"
       gradientUnits="userSpaceOnUse"
       y2="0"
       x2="1"
       y1="0"
       x1="0">
      <stop
         id="stop4506"
         offset="0"
         style="stop-opacity:1;stop-color:#000000" />
      <stop
         id="stop4508"
         offset="1"
         style="stop-opacity:1;stop-color:#ffffff" />
    </linearGradient>
    <clipPath
       id="clipPath4496"
       clipPathUnits="userSpaceOnUse">
      <path
         id="path4498"
         d="m 290.952,398.628 321.023,0 0,-103.141 -321.023,0 0,103.141 z" />
    </clipPath>
    <linearGradient
       id="linearGradient4472"
       spreadMethod="pad"
       gradientTransform="matrix(0,47.97168,47.97168,0,252.54541,295.29297)"
       gradientUnits="userSpaceOnUse"
       y2="0"
       x2="1"
       y1="0"
       x1="0">
      <stop
         id="stop4474"
         offset="0"
         style="stop-opacity:1;stop-color:#000000" />
      <stop
         id="stop4476"
         offset="1"
         style="stop-opacity:1;stop-color:#ffffff" />
    </linearGradient>
    <clipPath
       id="clipPath4464"
       clipPathUnits="userSpaceOnUse">
      <path
         id="path4466"
         d="m 177.891,343.265 149.309,0 0,-47.972 -149.309,0 0,47.972 z" />
    </clipPath>
    <linearGradient
       id="linearGradient4440"
       spreadMethod="pad"
       gradientTransform="matrix(0,66.321289,66.321289,0,122.89795,219.27344)"
       gradientUnits="userSpaceOnUse"
       y2="0"
       x2="1"
       y1="0"
       x1="0">
      <stop
         id="stop4442"
         offset="0"
         style="stop-opacity:1;stop-color:#000000" />
      <stop
         id="stop4444"
         offset="1"
         style="stop-opacity:1;stop-color:#ffffff" />
    </linearGradient>
    <clipPath
       id="clipPath4432"
       clipPathUnits="userSpaceOnUse">
      <path
         id="path4434"
         d="m 19.7036,285.595 206.3884,0 0,-66.322 -206.3884,0 0,66.322 z" />
    </clipPath>
    <linearGradient
       id="linearGradient4408"
       spreadMethod="pad"
       gradientTransform="matrix(-1.53e-5,215.91846,215.91846,1.53e-5,639.64258,267.11523)"
       gradientUnits="userSpaceOnUse"
       y2="0"
       x2="1"
       y1="0"
       x1="0">
      <stop
         id="stop4410"
         offset="0"
         style="stop-opacity:1;stop-color:#000000" />
      <stop
         id="stop4412"
         offset="1"
         style="stop-opacity:1;stop-color:#abadb0" />
    </linearGradient>
    <clipPath
       id="clipPath4400"
       clipPathUnits="userSpaceOnUse">
      <path
         id="path4402"
         d="m 480.15,483.034 318.985,0 0,-215.919 -318.985,0 0,215.919 z" />
    </clipPath>
    <linearGradient
       id="linearGradient4376"
       spreadMethod="pad"
       gradientTransform="matrix(0,157.60059,157.60059,0,135.64404,221.7959)"
       gradientUnits="userSpaceOnUse"
       y2="0"
       x2="1"
       y1="0"
       x1="0">
      <stop
         id="stop4378"
         offset="0"
         style="stop-opacity:1;stop-color:#000000" />
      <stop
         id="stop4380"
         offset="1"
         style="stop-opacity:1;stop-color:#ffffff" />
    </linearGradient>
    <clipPath
       id="clipPath4368"
       clipPathUnits="userSpaceOnUse">
      <path
         id="path4370"
         d="m 0.654785,379.396 269.978215,0 0,-157.6 -269.978215,0 0,157.6 z" />
    </clipPath>
    <linearGradient
       id="linearGradient4344"
       spreadMethod="pad"
       gradientTransform="matrix(0,155.55664,155.55664,0,177.22314,293.42871)"
       gradientUnits="userSpaceOnUse"
       y2="0"
       x2="1"
       y1="0"
       x1="0">
      <stop
         id="stop4346"
         offset="0"
         style="stop-opacity:1;stop-color:#000000" />
      <stop
         id="stop4348"
         offset="1"
         style="stop-opacity:1;stop-color:#a3a5a8" />
    </linearGradient>
    <clipPath
       id="clipPath4336"
       clipPathUnits="userSpaceOnUse">
      <path
         id="path4338"
         d="m 0.654785,448.986 353.137215,0 0,-155.557 -353.137215,0 0,155.557 z" />
    </clipPath>
    <linearGradient
       id="linearGradient4312"
       spreadMethod="pad"
       gradientTransform="matrix(0,124.30664,-124.30664,0,656.72559,173.39844)"
       gradientUnits="userSpaceOnUse"
       y2="0"
       x2="1"
       y1="0"
       x1="0">
      <stop
         id="stop4314"
         offset="0"
         style="stop-opacity:1;stop-color:#000000" />
      <stop
         id="stop4316"
         offset="1"
         style="stop-opacity:1;stop-color:#ffffff" />
    </linearGradient>
    <clipPath
       id="clipPath4304"
       clipPathUnits="userSpaceOnUse">
      <path
         id="path4306"
         d="m 514.955,297.705 283.541,0 0,-124.307 -283.541,0 0,124.307 z" />
    </clipPath>
    <linearGradient
       id="linearGradient4280"
       spreadMethod="pad"
       gradientTransform="matrix(0,91.345703,91.345703,0,703.70508,137.55762)"
       gradientUnits="userSpaceOnUse"
       y2="0"
       x2="1"
       y1="0"
       x1="0">
      <stop
         id="stop4282"
         offset="0"
         style="stop-opacity:1;stop-color:#000000" />
      <stop
         id="stop4284"
         offset="1"
         style="stop-opacity:1;stop-color:#ffffff" />
    </linearGradient>
    <clipPath
       id="clipPath4272"
       clipPathUnits="userSpaceOnUse">
      <path
         id="path4274"
         d="m 608.529,228.903 190.352,0 0,-91.345 -190.352,0 0,91.345 z" />
    </clipPath>
    <linearGradient
       id="linearGradient4248"
       spreadMethod="pad"
       gradientTransform="matrix(0,103.1416,-103.1416,0,398.95117,149.85742)"
       gradientUnits="userSpaceOnUse"
       y2="0"
       x2="1"
       y1="0"
       x1="0">
      <stop
         id="stop4250"
         offset="0"
         style="stop-opacity:1;stop-color:#000000" />
      <stop
         id="stop4252"
         offset="1"
         style="stop-opacity:1;stop-color:#ffffff" />
    </linearGradient>
    <clipPath
       id="clipPath4240"
       clipPathUnits="userSpaceOnUse">
      <path
         id="path4242"
         d="m 238.44,252.999 321.023,0 0,-103.142 -321.023,0 0,103.142 z" />
    </clipPath>
    <linearGradient
       id="linearGradient4216"
       spreadMethod="pad"
       gradientTransform="matrix(0,47.97168,47.97168,0,251.90625,218.14258)"
       gradientUnits="userSpaceOnUse"
       y2="0"
       x2="1"
       y1="0"
       x1="0">
      <stop
         id="stop4218"
         offset="0"
         style="stop-opacity:1;stop-color:#000000" />
      <stop
         id="stop4220"
         offset="1"
         style="stop-opacity:1;stop-color:#ffffff" />
    </linearGradient>
    <clipPath
       id="clipPath4208"
       clipPathUnits="userSpaceOnUse">
      <path
         id="path4210"
         d="m 177.251,266.114 149.31,0 0,-47.971 -149.31,0 0,47.971 z" />
    </clipPath>
    <linearGradient
       id="linearGradient4184"
       spreadMethod="pad"
       gradientTransform="matrix(0,66.321289,66.321289,0,122.26025,142.12305)"
       gradientUnits="userSpaceOnUse"
       y2="0"
       x2="1"
       y1="0"
       x1="0">
      <stop
         id="stop4186"
         offset="0"
         style="stop-opacity:1;stop-color:#000000" />
      <stop
         id="stop4188"
         offset="1"
         style="stop-opacity:1;stop-color:#ffffff" />
    </linearGradient>
    <clipPath
       id="clipPath4176"
       clipPathUnits="userSpaceOnUse">
      <path
         id="path4178"
         d="m 19.0659,208.444 206.3891,0 0,-66.321 -206.3891,0 0,66.321 z" />
    </clipPath>
    <linearGradient
       id="linearGradient4152"
       spreadMethod="pad"
       gradientTransform="matrix(-1.53e-5,215.91846,215.91846,1.53e-5,639.00488,189.96484)"
       gradientUnits="userSpaceOnUse"
       y2="0"
       x2="1"
       y1="0"
       x1="0">
      <stop
         id="stop4154"
         offset="0"
         style="stop-opacity:1;stop-color:#000000" />
      <stop
         id="stop4156"
         offset="1"
         style="stop-opacity:1;stop-color:#abadb0" />
    </linearGradient>
    <clipPath
       id="clipPath4144"
       clipPathUnits="userSpaceOnUse">
      <path
         id="path4146"
         d="m 479.514,405.884 318.982,0 0,-215.919 -318.982,0 0,215.919 z" />
    </clipPath>
    <linearGradient
       id="linearGradient4120"
       spreadMethod="pad"
       gradientTransform="matrix(0,157.60059,157.60059,0,135.00537,144.64551)"
       gradientUnits="userSpaceOnUse"
       y2="0"
       x2="1"
       y1="0"
       x1="0">
      <stop
         id="stop4122"
         offset="0"
         style="stop-opacity:1;stop-color:#000000" />
      <stop
         id="stop4124"
         offset="1"
         style="stop-opacity:1;stop-color:#ffffff" />
    </linearGradient>
    <clipPath
       id="clipPath4112"
       clipPathUnits="userSpaceOnUse">
      <path
         id="path4114"
         d="m 0.0161133,302.246 269.9788867,0 0,-157.6 -269.9788867,0 0,157.6 z" />
    </clipPath>
    <linearGradient
       id="linearGradient4088"
       spreadMethod="pad"
       gradientTransform="matrix(0,155.55664,155.55664,0,176.58496,216.27832)"
       gradientUnits="userSpaceOnUse"
       y2="0"
       x2="1"
       y1="0"
       x1="0">
      <stop
         id="stop4090"
         offset="0"
         style="stop-opacity:1;stop-color:#000000" />
      <stop
         id="stop4092"
         offset="1"
         style="stop-opacity:1;stop-color:#a3a5a8" />
    </linearGradient>
    <clipPath
       id="clipPath4080"
       clipPathUnits="userSpaceOnUse">
      <path
         id="path4082"
         d="m 0.0161133,371.835 353.1378867,0 0,-155.557 -353.1378867,0 0,155.557 z" />
    </clipPath>
    <clipPath
       id="clipPath3052"
       clipPathUnits="userSpaceOnUse">
      <path
         id="path3054"
         d="M 0.480957,800 800.48,800 800.48,0 0.480957,0 l 0,800 z" />
    </clipPath>
    <clipPath
       id="clipPath3044"
       clipPathUnits="userSpaceOnUse">
      <path
         id="path3046"
         d="M 0,800 800,800 800,0 0,0 0,800 z" />
    </clipPath>
    <linearGradient
       id="linearGradient3026"
       spreadMethod="pad"
       gradientTransform="matrix(-4.58e-5,891.29437,891.29437,4.58e-5,399.94482,-69.238281)"
       gradientUnits="userSpaceOnUse"
       y2="0"
       x2="1"
       y1="0"
       x1="0">
      <stop
         id="stop3028"
         offset="0"
         style="stop-opacity:1;stop-color:#fffcec" />
      <stop
         id="stop3030"
         offset="0.684845"
         style="stop-opacity:1;stop-color:#00bcf1" />
      <stop
         id="stop3032"
         offset="0.684845"
         style="stop-opacity:1;stop-color:#00bcf1" />
      <stop
         id="stop3034"
         offset="0.939392"
         style="stop-opacity:1;stop-color:#0086cd" />
      <stop
         id="stop3036"
         offset="1"
         style="stop-opacity:1;stop-color:#0086cd" />
    </linearGradient>
    <linearGradient
       inkscape:collect="always"
       xlink:href="#linearGradient4696"
       id="linearGradient11104"
       gradientUnits="userSpaceOnUse"
       gradientTransform="matrix(0,47.97168,47.97168,0,434.67773,412.73633)"
       spreadMethod="pad"
       x1="0"
       y1="0"
       x2="1"
       y2="0" />
  </defs>
  <sodipodi:namedview
     id="base"
     pagecolor="#ffffff"
     bordercolor="#666666"
     borderopacity="1.0"
     inkscape:pageopacity="0.0"
     inkscape:pageshadow="2"
     inkscape:zoom="0.24748737"
     inkscape:cx="-903.85226"
     inkscape:cy="613.56175"
     inkscape:document-units="px"
     inkscape:current-layer="layer1"
     showgrid="false"
     inkscape:window-width="1449"
     inkscape:window-height="936"
     inkscape:window-x="464"
     inkscape:window-y="138"
     inkscape:window-maximized="0" />
  <metadata
     id="metadata7">
    <rdf:RDF>
      <cc:Work
         rdf:about="">
        <dc:format>image/svg+xml</dc:format>
        <dc:type
           rdf:resource="http://purl.org/dc/dcmitype/StillImage" />
        <dc:title />
      </cc:Work>
    </rdf:RDF>
  </metadata>
  <g
     inkscape:label="Layer 1"
     inkscape:groupmode="layer"
     id="layer1">
    <path
       inkscape:connector-curvature="0"
       d="m 1433.1721,676.77522 -837.88005,561.30128 -0.90875,0 838.7888,-561.90628 0,0.605 z"
       style="opacity:0.19999701;fill:#ffffff;fill-opacity:1;fill-rule:nonzero;stroke:none"
       id="path3734" />
    <path
       id="path4814"
       style="fill:#ffaacc;fill-opacity:1;fill-rule:nonzero;stroke:none"
       d="m 225.09538,531.07079 0,-117.18208 c 0,0 80.43483,-24.99941 163.26018,-12.49799 82.82764,12.49799 269.97687,53.1216 330.50383,12.49799 l -19.71077,61.32519 19.71077,55.85689 c 0,0 -121.84583,26.17102 -222.19541,6.24899 C 396.32009,517.3989 319.0699,506.07252 225.09538,531.07079"
       inkscape:connector-curvature="0" />
    <path
       inkscape:connector-curvature="0"
       d="m 221.96778,531.07033 3.1357,0 0,-117.18208 -3.1357,0 0,117.18208 z"
       style="fill:#4d4d4d;fill-opacity:1;fill-rule:nonzero;stroke:none"
       id="path4816" />
    <path
       id="path4820"
       style="fill:#4d4d4d;fill-opacity:1;fill-rule:nonzero;stroke:none"
       d="m 223.79018,528.23445 -91.126,-57.15881 90.7078,-53.65083 1.1565,1.96832 -87.4753,51.73966 87.9459,55.16307 -1.2089,1.93859 z"
       inkscape:connector-curvature="0" />
    <path
       id="path4824"
       style="fill:#010000;fill-opacity:1;fill-rule:nonzero;stroke:none"
       d="m 18.572676,471.04398 c -0.044,-0.36349 -0.1116,-0.95901 -0.1526,-1.32364 l -0.5492,-5.08195 c -0.039,-0.36463 -0.1163,-0.95901 -0.1687,-1.3225 l -0.5047,-3.50684 c -0.051,-0.36234 -0.1208,-0.3612 -0.1516,0.004 l -0.147,1.66883 c -0.031,0.36578 -0.054,0.96359 -0.049,1.32936 l 0.072,6.15755 c 0,0.36692 0.017,0.96473 0.029,1.33164 l 0.131,4.16066 c 0.014,0.36692 0.03,0.96473 0.039,1.3305 l 0.1402,5.57575 c 0.01,0.36577 0.063,0.96129 0.1219,1.32249 l 0.3977,2.5124 c 0.058,0.36235 0.1504,0.3612 0.2039,-9.1e-4 l 0.4091,-2.67586 c 0.056,-0.36234 0.1162,-0.95786 0.1356,-1.32364 l 0.3623,-6.5759 c 0.02,-0.36577 0,-0.9613 -0.044,-1.32478 l -0.2734,-2.25636 z"
       inkscape:connector-curvature="0" />
    <path
       id="path4828"
       style="fill:#010000;fill-opacity:1;fill-rule:nonzero;stroke:none"
       d="m 17.458376,466.12468 0.033,2.83702 c 0,0.36349 0.017,0.95673 0.028,1.32021 l 0.1311,4.16066 c 0.014,0.36578 0.03,0.96702 0.039,1.33507 l 0.1402,5.57461 c 0,0.19546 0.023,0.46293 0.049,0.71782 0.035,-0.30633 0.068,-0.6561 0.08,-0.89842 l 0.3634,-6.57819 c 0.018,-0.33263 -9e-4,-0.89272 -0.041,-1.2242 l -0.8226,-7.24458 z m 0.425,19.91974 0,0 c -0.2484,0 -0.5652,-0.1303 -0.6666,-0.75098 l -0.3976,-2.51468 c -0.063,-0.38292 -0.1197,-0.99902 -0.1288,-1.39794 l -0.1401,-5.5746 c -0.01,-0.36577 -0.024,-0.96015 -0.038,-1.32478 l -0.131,-4.16409 c -0.013,-0.36921 -0.025,-0.97273 -0.03,-1.34193 l -0.072,-6.1587 c 0,-0.38063 0.018,-1.00358 0.051,-1.38307 l 0.1469,-1.67113 c 0.046,-0.52694 0.2598,-0.79555 0.6358,-0.79555 0.539,0 0.621,0.5738 0.6472,0.76126 l 0.5048,3.50685 c 0.053,0.36805 0.131,0.97158 0.1709,1.34192 l 0.9753,8.65395 c 0.048,0.39778 0.07,1.02417 0.047,1.42537 l -0.3623,6.57591 c -0.019,0.37949 -0.083,1.0013 -0.1413,1.37965 l -0.4079,2.67585 c -0.095,0.62524 -0.4136,0.75669 -0.6643,0.75669"
       inkscape:connector-curvature="0" />
    <path
       id="path4832"
       style="fill:#010000;fill-opacity:1;fill-rule:nonzero;stroke:none"
       d="m 16.552076,470.94178 c -1.9119,-0.048 -3.449,0.31205 -3.416,0.80013 0.03,0.48808 0.3692,1.26192 0.752,1.71913 0.3806,0.45836 1.1668,0.98187 1.7377,1.1659 0.5731,0.18289 1.5496,0.33263 2.1705,0.33263 0.6222,0 1.2876,0.29947 1.4779,0.66525 0.1914,0.36577 0.5047,0.92814 0.6962,1.24819 0.1902,0.32006 0.8295,0.76927 1.4197,0.99902 0.5879,0.22861 2.6263,0.58524 4.5246,0.79213 l 2.2458,0.24461 c 1.8983,0.20803 5.0157,0.43549 6.9254,0.50522 l 2.0919,0.0766 c 1.9074,0.0709 5.0351,0.11316 6.9448,0.0926 l 25.5468,-0.26062 c 1.9108,-0.0206 5.034,-0.14173 6.9425,-0.2709 l 10.2684,-0.69611 c 1.9063,-0.12802 5.018,-0.42864 6.9117,-0.66639 l 7.705904,-0.96587 c 1.8949,-0.23775 4.9827,-0.70868 6.8616,-1.04588 l 1.5086,-0.27204 c 1.8789,-0.3372 4.16,-0.91215 5.0681,-1.27792 0.9081,-0.36692 0.087,-0.70526 -1.8231,-0.75326 l -96.561004,-2.43239 z"
       inkscape:connector-curvature="0" />
    <path
       id="path4836"
       style="fill:#ffffff;fill-opacity:1;fill-rule:nonzero;stroke:none"
       d="m 13.728076,471.86548 c 0.075,0.35663 0.3133,0.89043 0.5959,1.22762 0.3122,0.37606 1.0004,0.83671 1.4755,0.98873 0.5185,0.16574 1.4334,0.30634 1.9963,0.30634 0.7167,0 1.6544,0.34062 1.9837,0.97272 0.1857,0.35663 0.4922,0.90529 0.6791,1.21848 0.099,0.16574 0.6016,0.55095 1.1371,0.75898 0.4717,0.18403 2.3871,0.54066 4.3799,0.75783 l 2.2458,0.24462 c 1.8972,0.20803 4.985,0.43206 6.8844,0.50179 l 2.0931,0.0777 c 1.5451,0.0572 3.9538,0.096 5.8566,0.096 l 1.0608,-0.005 25.548,-0.26176 c 1.9131,-0.0195 5.0134,-0.14059 6.9094,-0.26861 l 10.2673,-0.69611 c 1.912,-0.12917 4.9986,-0.42636 6.881,-0.66296 l 7.704704,-0.96702 c 1.8994,-0.23775 4.9644,-0.70525 6.8319,-1.04016 l 1.5098,-0.27204 c 1.2636,-0.22633 2.7437,-0.57152 3.8204,-0.87786 -0.1481,-0.008 -0.311,-0.0149 -0.4899,-0.0195 l -96.890304,-2.43696 c -1.3867,0 -2.2002,0.2149 -2.4805,0.35663 m 29.3274,8.29389 c -1.9154,0 -4.3412,-0.04 -5.8988,-0.0971 l -2.0919,-0.0766 c -1.9222,-0.0709 -5.0476,-0.29834 -6.9664,-0.50866 l -2.2458,-0.24461 c -1.7365,-0.1886 -3.9583,-0.55094 -4.6693,-0.8287 -0.6233,-0.24118 -1.4095,-0.74412 -1.7023,-1.23791 -0.1949,-0.32691 -0.5162,-0.90072 -0.7122,-1.27563 -0.056,-0.10516 -0.4648,-0.35892 -0.973,-0.35892 -0.6825,0 -1.7114,-0.15888 -2.3427,-0.36005 -0.6768,-0.21718 -1.5564,-0.80699 -2.0031,-1.34422 -0.4648,-0.55551 -0.8443,-1.43794 -0.883,-2.04947 -0.015,-0.22632 0.069,-0.45378 0.2404,-0.63667 0.67,-0.71897 2.7722,-0.77498 3.4012,-0.77498 l 0.3577,0.005 96.561104,2.43239 c 2.1455,0.0538 2.6468,0.40349 2.738,0.91214 0.05,0.27776 -0.034,0.66754 -0.7167,0.94187 -0.94,0.37949 -3.2644,0.96815 -5.1798,1.31106 l -1.5086,0.27205 c -1.8846,0.33948 -4.9758,0.80927 -6.8923,1.05045 l -7.704804,0.96587 c -1.8994,0.23889 -5.0145,0.53951 -6.9447,0.66982 l -10.2684,0.69611 c -1.9142,0.12916 -5.0431,0.25147 -6.9744,0.2709 l -26.6202,0.26633 z"
       inkscape:connector-curvature="0" />
    <path
       id="path4840"
       style="fill:#010000;fill-opacity:1;fill-rule:nonzero;stroke:none"
       d="m 47.485476,473.41876 c -1.9143,-0.006 -4.7013,-0.16346 -6.1996,-0.3452 -1.4961,-0.18288 -2.2253,1.08703 -1.6146,2.82216 l 2.8246,8.05729 c 0.6085,1.73513 1.1907,4.65102 1.2967,6.4776 l 2.3996,42.11413 c 0.106,1.82887 0.2701,4.07379 0.3658,4.98937 0.096,0.91443 0.6426,2.11233 1.2146,2.66099 0.5743,0.54981 1.8652,1.11218 2.8679,1.2482 1.0038,0.13831 2.8782,0.13831 4.1714,0 1.291,-0.13602 3.4,-0.58638 4.691,-0.99787 1.2909,-0.4115 2.6195,-0.93615 2.9545,-1.16476 0.335,-0.22861 0.8511,-1.89516 1.1485,-3.70459 l 7.6068,-46.17878 c 0.2962,-1.80829 0.9719,-4.72761 1.496,-6.48789 l 1.8539,-6.19298 c 0.5252,-1.76028 -0.6085,-3.20394 -2.5193,-3.2108 l -24.5578,-0.0869 z"
       inkscape:connector-curvature="0" />
    <path
       id="path4844"
       style="fill:#010000;fill-opacity:1;fill-rule:nonzero;stroke:none"
       d="m 41.006176,473.62805 c -0.3521,0 -0.6142,0.11887 -0.7794,0.35205 -0.2609,0.37035 -0.2678,1.01502 -0.018,1.72599 l 2.8246,8.05728 c 0.6232,1.77629 1.2192,4.75276 1.3274,6.6342 l 2.4007,42.11528 c 0.106,1.83915 0.269,4.06464 0.3624,4.96079 0.081,0.77498 0.5686,1.85401 1.0425,2.30894 0.4843,0.46407 1.6773,0.97615 2.5501,1.09388 0.9218,0.12688 2.8371,0.12574 4.0346,-9.1e-4 1.2557,-0.13259 3.3089,-0.56923 4.5794,-0.97501 1.4026,-0.44693 2.5796,-0.93729 2.8063,-1.0916 0.1334,-0.16689 0.6005,-1.46081 0.9082,-3.32511 l 7.6067,-46.17992 c 0.2963,-1.81286 0.9742,-4.75504 1.5109,-6.55761 l 1.8538,-6.19413 c 0.1937,-0.64811 0.1162,-1.25506 -0.2199,-1.70885 -0.3635,-0.4915 -0.9867,-0.76355 -1.7558,-0.76583 l -24.5568,-0.0869 c -1.9256,-0.007 -4.7365,-0.16346 -6.2668,-0.34863 -0.073,-0.009 -0.1424,-0.0137 -0.2107,-0.0137 m 11.6118,68.48976 c -0.8147,0 -1.5451,-0.0378 -2.0556,-0.10744 -1.1234,-0.15317 -2.5226,-0.76927 -3.1835,-1.40137 -0.6688,-0.64124 -1.2784,-1.96603 -1.3878,-3.01534 -0.096,-0.911 -0.2609,-3.16164 -0.3669,-5.01565 l -2.4007,-42.11413 c -0.1037,-1.79229 -0.6712,-4.62817 -1.2648,-6.32101 l -2.8257,-8.05728 c -0.3772,-1.0756 -0.3168,-2.08262 0.164,-2.76616 0.4387,-0.62067 1.1611,-0.92586 2.0578,-0.8127 1.4927,0.1806 4.2443,0.33377 6.1324,0.34063 l 24.5578,0.0869 c 1.1201,0.004 2.092,0.4515 2.6674,1.22762 0.5537,0.75098 0.695,1.7157 0.3954,2.71929 l -1.8539,6.19299 c -0.5252,1.76371 -1.1884,4.64188 -1.4789,6.41588 l -7.6068,46.17992 c -0.059,0.3612 -0.605,3.54571 -1.3912,4.08294 -0.4398,0.30176 -1.9268,0.86185 -3.1015,1.23791 -1.332,0.42406 -3.4866,0.88242 -4.8049,1.02073 -0.6438,0.0686 -1.4437,0.1063 -2.2526,0.1063"
       inkscape:connector-curvature="0" />
    <path
       id="path4848"
       style="fill:#010000;fill-opacity:1;fill-rule:nonzero;stroke:none"
       d="m 115.71248,471.74443 c -0.9526,-0.0617 -1.7251,0.63553 -1.7183,1.54996 l 0.058,6.07525 c 0.01,0.91443 0.082,2.41067 0.1653,3.32167 l 0.6528,7.0857 c 0.083,0.91215 0.2405,2.40153 0.3498,3.31139 l 0.5595,4.68074 c 0.1082,0.90986 0.3156,1.93517 0.4603,2.27808 0.1413,0.34405 0.6495,0.81156 1.128,1.04016 0.4786,0.22747 1.2807,0.56581 1.781,0.74869 0.5024,0.18289 1.6863,0.22518 2.632,0.0926 l 0.7327,-0.10173 c 0.9445,-0.13259 2.4224,-0.44579 3.2826,-0.6984 0.8591,-0.25147 1.7023,-1.19447 1.8687,-2.09519 l 1.7341,-9.28833 c 0.1698,-0.90186 0.4034,-2.3821 0.523,-3.28967 l 1.5667,-12.00764 c 0.1185,-0.90871 -0.564,-1.70312 -1.5177,-1.76599 l -14.2586,-0.93729 z"
       inkscape:connector-curvature="0" />
    <path
       id="path4852"
       style="fill:#010000;fill-opacity:1;fill-rule:nonzero;stroke:none"
       d="m 115.66188,472.31481 c -0.3692,0 -0.6347,0.10745 -0.8261,0.30062 -0.1766,0.17946 -0.2734,0.41835 -0.2712,0.67554 l 0.057,6.07296 c 0.01,0.89386 0.08,2.36267 0.1641,3.27481 l 0.6518,7.0857 c 0.083,0.90757 0.2392,2.3901 0.3486,3.29424 l 0.5595,4.68189 c 0.1105,0.92929 0.3099,1.86544 0.4193,2.12376 0.071,0.17146 0.4432,0.55323 0.8488,0.74755 0.4661,0.22175 1.2591,0.55552 1.7297,0.72697 0.1709,0.0628 0.6061,0.13603 1.2636,0.13603 0.3806,0 0.76,-0.0251 1.0961,-0.0721 l 0.7315,-0.10173 c 0.9286,-0.13031 2.3654,-0.4355 3.2018,-0.68125 0.6551,-0.19089 1.3411,-0.96244 1.4687,-1.65055 l 1.733,-9.28948 c 0.1641,-0.86642 0.3966,-2.32723 0.5196,-3.2588 l 1.5667,-12.00763 c 0.034,-0.26747 -0.04,-0.52808 -0.2085,-0.73383 -0.1869,-0.22975 -0.4649,-0.36692 -0.7828,-0.38749 l -14.2575,-0.93729 -0.014,0 z m 4.9451,30.26311 c -0.408,0 -1.1645,-0.0263 -1.6522,-0.20461 -0.5082,-0.18517 -1.3274,-0.53037 -1.8299,-0.76812 -0.5207,-0.25033 -1.1907,-0.8047 -1.4117,-1.34079 -0.1892,-0.44578 -0.3988,-1.58539 -0.5002,-2.42667 l -0.5584,-4.68189 c -0.1105,-0.91214 -0.2677,-2.40952 -0.352,-3.32624 l -0.6518,-7.0857 c -0.085,-0.93958 -0.1618,-2.45182 -0.1686,-3.37082 l -0.057,-6.07297 c -0.01,-0.56466 0.2096,-1.09274 0.6016,-1.48938 0.4091,-0.41378 0.9662,-0.64124 1.5678,-0.64124 l 0.155,0.005 14.2587,0.93729 c 0.6266,0.0412 1.2055,0.33377 1.5883,0.80241 0.3715,0.45379 0.5333,1.02417 0.4569,1.60826 l -1.5667,12.00763 c -0.1242,0.94986 -0.3612,2.43924 -0.5287,3.32167 l -1.733,9.28719 c -0.2063,1.11103 -1.2033,2.22664 -2.2697,2.53869 -0.8797,0.25833 -2.3883,0.57952 -3.3625,0.71554 l -0.7337,0.10173 c -0.3863,0.0549 -0.8193,0.0835 -1.2523,0.0835"
       inkscape:connector-curvature="0" />
    <path
       id="path4856"
       style="fill:#010000;fill-opacity:1;fill-rule:nonzero;stroke:none"
       d="m 16.574276,471.26665 c -1.9108,0.0469 -3.449,-0.31205 -3.416,-0.80013 0.031,-0.48808 0.3692,-1.26192 0.7543,-1.72028 0.3806,-0.45721 1.1634,-0.98187 1.7354,-1.16475 0.5731,-0.18175 1.5519,-0.33263 2.1728,-0.33263 0.6222,0 1.2864,-0.29947 1.4779,-0.66639 0.1914,-0.36577 0.5024,-0.927 0.6939,-1.2482 0.1925,-0.32005 0.8306,-0.76812 1.4197,-0.99787 0.5902,-0.22861 2.6263,-0.58524 4.5246,-0.79213 l 2.2458,-0.24461 c 1.8994,-0.20803 5.0157,-0.4355 6.9254,-0.50522 l 2.0908,-0.0777 c 1.9097,-0.0698 5.0362,-0.11202 6.9482,-0.0926 l 25.5446,0.26175 c 1.9108,0.0194 5.0373,0.14174 6.9424,0.2709 l 10.2684,0.69611 c 1.9074,0.12802 5.018,0.42979 6.914,0.6664 l 7.703604,0.96586 c 1.8949,0.23776 4.9838,0.70869 6.8616,1.04588 l 1.5086,0.2709 c 1.8789,0.3372 4.16,0.91329 5.0693,1.27907 0.9069,0.36577 0.088,0.70525 -1.8243,0.75326 l -96.561004,2.43239 z"
       inkscape:connector-curvature="0" />
    <path
       id="path4860"
       style="fill:#ffffff;fill-opacity:1;fill-rule:nonzero;stroke:none"
       d="m 13.750776,470.34295 c 0.2803,0.14174 1.0984,0.35663 2.4897,0.35663 l 0.3201,-0.005 96.559904,-2.43239 c 0.1801,-0.005 0.343,-0.0114 0.4923,-0.0195 -1.0779,-0.30633 -2.5592,-0.65153 -3.8216,-0.87785 l -1.5098,-0.2716 c -1.8743,-0.33605 -4.9393,-0.80241 -6.8319,-1.04016 l -7.703604,-0.96701 c -1.9063,-0.23775 -4.9929,-0.53609 -6.8821,-0.66296 l -10.2684,-0.69612 c -1.9074,-0.12916 -5.0066,-0.25032 -6.9094,-0.26861 l -26.5849,-0.26747 c -1.9074,0 -4.3264,0.04 -5.8817,0.0972 l -2.0908,0.0777 c -1.912,0.0698 -4.9998,0.29491 -6.8844,0.5018 l -2.2458,0.24461 c -1.9905,0.21718 -3.9059,0.57266 -4.381,0.75669 -0.5333,0.20918 -1.038,0.59552 -1.1372,0.76012 -0.1857,0.31205 -0.4899,0.86071 -0.6768,1.21962 -0.3338,0.63782 -1.2499,0.97159 -1.9826,0.97159 -0.5628,0 -1.4789,0.14059 -1.9996,0.30633 -0.4718,0.14974 -1.1588,0.61153 -1.471,0.98644 -0.2849,0.33834 -0.5242,0.87443 -0.5994,1.22991 m 2.4897,1.49967 c -0.6313,0 -2.7415,-0.0561 -3.4114,-0.77498 -0.1698,-0.18288 -0.2553,-0.41035 -0.2393,-0.6401 0.04,-0.61267 0.4204,-1.49395 0.8876,-2.04947 0.4455,-0.53608 1.324,-1.12589 1.9985,-1.34078 0.6335,-0.20232 1.6636,-0.36006 2.3449,-0.36006 0.5094,0 0.9173,-0.25604 0.9731,-0.36006 0.196,-0.37377 0.5139,-0.94758 0.7099,-1.27563 0.2962,-0.49379 1.0813,-0.99559 1.7022,-1.23791 0.7156,-0.27776 2.9363,-0.63896 4.6694,-0.82756 l 2.2458,-0.24461 c 1.9062,-0.20918 5.0316,-0.43779 6.9652,-0.50865 l 2.0909,-0.0766 c 1.5689,-0.0582 4.005,-0.0983 5.9238,-0.0983 l 1.0517,0.005 25.5446,0.26176 c 1.921,0.0183 5.0499,0.14059 6.9755,0.2709 l 10.2673,0.69611 c 1.9073,0.12916 5.0236,0.42978 6.947,0.66982 l 7.703604,0.96587 c 1.9096,0.24004 5.0009,0.71097 6.8912,1.05045 l 1.5097,0.2709 c 1.9119,0.34291 4.2363,0.93158 5.1798,1.31107 0.6825,0.27547 0.7668,0.66524 0.7167,0.943 -0.091,0.50866 -0.5925,0.85843 -2.738,0.91215 l -96.909704,2.43696 z"
       inkscape:connector-curvature="0" />
    <path
       id="path4864"
       style="fill:#010000;fill-opacity:1;fill-rule:nonzero;stroke:none"
       d="m 47.507676,468.79025 c -1.912,0.006 -4.7013,0.16231 -6.1985,0.34519 -1.4972,0.18289 -2.2252,-1.08703 -1.6145,-2.82216 l 2.8246,-8.05843 c 0.6096,-1.73513 1.1918,-4.64988 1.2955,-6.4776 l 2.4019,-42.11413 c 0.1048,-1.82772 0.2678,-4.07265 0.3635,-4.98708 0.096,-0.91672 0.6426,-2.11348 1.2146,-2.66328 0.5754,-0.5498 1.8652,-1.11218 2.8702,-1.2482 1.0015,-0.13716 2.8782,-0.13716 4.1691,0 1.291,0.13602 3.4,0.58638 4.6921,0.99787 1.2899,0.41264 2.6207,0.93615 2.9545,1.16476 0.3339,0.22975 0.85,1.8963 1.1474,3.70459 l 7.6068,46.17992 c 0.2985,1.80715 0.973,4.72761 1.4983,6.48675 l 1.8516,6.19299 c 0.5275,1.76028 -0.6062,3.20508 -2.517,3.21194 l -24.5601,0.0869 z"
       inkscape:connector-curvature="0" />
    <path
       id="path4868"
       style="fill:#010000;fill-opacity:1;fill-rule:nonzero;stroke:none"
       d="m 52.641176,401.23321 c -0.7532,0 -1.4459,0.0354 -1.8983,0.0971 -0.875,0.11888 -2.068,0.63096 -2.5557,1.09618 -0.4728,0.45493 -0.9594,1.53396 -1.0414,2.30894 -0.092,0.89271 -0.2541,3.11821 -0.3601,4.96079 l -2.403,42.11413 c -0.106,1.87916 -0.7007,4.85563 -1.3263,6.6342 l -2.8246,8.05843 c -0.2495,0.71097 -0.2427,1.35564 0.018,1.72598 0.1972,0.27776 0.5401,0.39092 0.9902,0.33949 1.5188,-0.18632 4.3298,-0.34291 6.2656,-0.34977 l 24.559,-0.0869 c 0.7691,-0.002 1.3924,-0.27433 1.7559,-0.76698 0.335,-0.45379 0.4124,-1.06074 0.2176,-1.70885 l -1.8515,-6.19298 c -0.5322,-1.78429 -1.2112,-4.72647 -1.5132,-6.55876 l -7.6067,-46.17984 c -0.3077,-1.8643 -0.7737,-3.15822 -0.9492,-3.3594 -0.1823,-0.11887 -1.357,-0.60809 -2.7642,-1.05845 -1.2727,-0.40464 -3.3271,-0.84128 -4.5793,-0.97387 -0.6062,-0.064 -1.3628,-0.0994 -2.133,-0.0994 m -11.6118,68.4909 c -0.7224,0 -1.3286,-0.29605 -1.7091,-0.83442 -0.482,-0.68239 -0.5413,-1.6917 -0.163,-2.76615 l 2.8246,-8.05843 c 0.5948,-1.69398 1.1623,-4.52986 1.2637,-6.32101 l 2.403,-42.11413 c 0.106,-1.85629 0.27,-4.10694 0.3646,-5.01451 0.1094,-1.04817 0.719,-2.37295 1.3878,-3.01534 0.6632,-0.63438 2.0635,-1.24934 3.1881,-1.40136 1.0129,-0.13945 3.0126,-0.13945 4.3047,-0.003 1.3149,0.13831 3.4707,0.59667 4.8038,1.02074 1.1804,0.3772 2.6674,0.93957 3.1038,1.23905 0.785,0.53723 1.3297,3.72059 1.3889,4.08179 l 7.6068,46.17993 c 0.2962,1.79228 0.9605,4.67045 1.4812,6.41702 l 1.8516,6.19184 c 0.3008,1.00245 0.1606,1.96831 -0.3943,2.71929 -0.5742,0.77727 -1.545,1.22534 -2.6662,1.22877 l -24.559,0.0869 c -1.8994,0.006 -4.65,0.16002 -6.1323,0.34062 -0.1208,0.0149 -0.237,0.0218 -0.3487,0.0218"
       inkscape:connector-curvature="0" />
    <path
       id="path4872"
       style="fill:#010000;fill-opacity:1;fill-rule:nonzero;stroke:none"
       d="m 115.73698,470.46355 c -0.9526,0.0628 -1.7274,-0.63439 -1.7205,-1.54997 l 0.058,-6.0741 c 0.01,-0.91558 0.083,-2.41067 0.1663,-3.32282 l 0.6529,-7.0857 c 0.082,-0.911 0.2404,-2.40152 0.3487,-3.31024 l 0.5617,-4.68303 c 0.1082,-0.90757 0.3145,-1.93288 0.458,-2.27694 0.1425,-0.34291 0.6518,-0.81041 1.1292,-1.03902 0.4786,-0.22975 1.2796,-0.56695 1.7798,-0.74983 0.5025,-0.18289 1.6875,-0.22404 2.632,-0.0926 l 0.7327,0.10288 c 0.9446,0.13145 2.4235,0.44578 3.2849,0.69725 0.8591,0.25147 1.7,1.19448 1.8687,2.09633 l 1.7342,9.2872 c 0.1663,0.90185 0.401,2.38209 0.5207,3.29081 l 1.5667,12.00762 c 0.1185,0.90872 -0.5629,1.70199 -1.5155,1.766 l -14.2586,0.93615 z"
       inkscape:connector-curvature="0" />
    <path
       id="path4876"
       style="fill:#010000;fill-opacity:1;fill-rule:nonzero;stroke:none"
       d="m 120.62788,440.77355 c -0.6574,0 -1.0915,0.0732 -1.2624,0.13602 -0.4797,0.17489 -1.2716,0.50866 -1.7285,0.72698 -0.4045,0.19431 -0.7794,0.57723 -0.8489,0.74412 -0.1083,0.26061 -0.3077,1.1979 -0.4182,2.12605 l -0.5606,4.68189 c -0.1094,0.90414 -0.2666,2.38781 -0.3486,3.29424 l -0.6518,7.08684 c -0.082,0.89385 -0.1561,2.36266 -0.1641,3.27595 l -0.058,6.07297 c 0,0.25489 0.095,0.49493 0.2712,0.67325 0.1937,0.19545 0.4638,0.30404 0.7612,0.30404 l 0.081,-0.002 14.2575,-0.93729 c 0.3167,-0.0206 0.5936,-0.15774 0.7816,-0.38634 0.1675,-0.20575 0.2416,-0.46751 0.2074,-0.73498 l -1.5667,-12.00745 c -0.1174,-0.89386 -0.3487,-2.35581 -0.5162,-3.25995 l -1.7341,-9.28719 c -0.1288,-0.68926 -0.8147,-1.46081 -1.4688,-1.6517 -0.8408,-0.24575 -2.2788,-0.55094 -3.204,-0.68125 l -0.7315,-0.10173 c -0.3373,-0.0468 -0.7156,-0.072 -1.0973,-0.072 m -5.0088,30.26539 c -0.6027,0 -1.161,-0.22861 -1.5701,-0.64125 -0.3919,-0.39778 -0.6061,-0.92586 -0.6016,-1.48824 l 0.058,-6.07525 c 0.01,-0.93843 0.084,-2.44953 0.1686,-3.36968 l 0.6518,-7.0857 c 0.083,-0.91443 0.2415,-2.41295 0.3509,-3.32624 l 0.5618,-4.68303 c 0.1002,-0.84014 0.3099,-1.97746 0.499,-2.42896 0.2211,-0.5338 0.8911,-1.08703 1.4083,-1.33507 0.4923,-0.23547 1.3127,-0.58066 1.83,-0.77041 0.4876,-0.17831 1.2442,-0.2046 1.6521,-0.2046 0.433,0 0.8671,0.0285 1.2545,0.0835 l 0.7315,0.10174 c 0.9708,0.13602 2.4805,0.45721 3.3658,0.71554 1.0643,0.3109 2.0613,1.42537 2.2698,2.53869 l 1.7342,9.28833 c 0.1697,0.92015 0.4056,2.41067 0.5252,3.32053 l 1.5667,12.00763 c 0.076,0.58409 -0.085,1.15561 -0.4569,1.6094 -0.3828,0.4675 -0.9605,0.76012 -1.586,0.80127 l -14.4137,0.94186 z"
       inkscape:connector-curvature="0" />
    <path
       id="path4880"
       style="fill:#010000;fill-opacity:1;fill-rule:nonzero;stroke:none"
       d="m 13.409776,471.15222 c 0,0.52923 -0.1173,0.95673 -0.2609,0.95673 -0.1424,0 -0.2598,-0.4275 -0.2598,-0.95673 0,-0.52808 0.1174,-0.95672 0.2598,-0.95672 0.1436,0 0.2609,0.42864 0.2609,0.95672"
       inkscape:connector-curvature="0" />
    <path
       id="path4884"
       style="fill:#010000;fill-opacity:1;fill-rule:nonzero;stroke:none"
       d="m 13.149376,472.68092 c -0.31,0 -0.8307,-0.19889 -0.8307,-1.52824 0,-1.3305 0.5207,-1.52939 0.8307,-1.52939 0.3099,0 0.8306,0.19889 0.8306,1.52939 0,1.32935 -0.5207,1.52824 -0.8306,1.52824"
       inkscape:connector-curvature="0" />
    <path
       id="path4888"
       style="fill:#010000;fill-opacity:1;fill-rule:nonzero;stroke:none"
       d="m 13.409776,470.19504 95.010304,-2.39124 9.9027,0.83214 11.4705,-0.33263 0.1732,6.32329 -19.4613,-0.99901 -86.886204,0.33262 -10.3607,-2.1832 0.1515,-1.58197 z"
       inkscape:connector-curvature="0" />
    <path
       id="path4892"
       style="fill:#010000;fill-opacity:1;fill-rule:nonzero;stroke:none"
       d="m 110.50268,473.05653 18.8768,0.96815 -0.1402,-5.13453 -10.8997,0.31662 -9.9676,-0.83442 -94.442804,2.38095 -0.055,0.56924 9.8024,2.06661 86.825804,-0.33262 z m 20.0503,2.17177 -20.0765,-1.02874 -86.915804,0.33263 -10.9179,-2.30094 0.2484,-2.5947 95.513904,-2.40495 9.9653,0.83442 11.9764,-0.35092 0.2062,7.5132 z"
       inkscape:connector-curvature="0" />
    <path
       id="path4896"
       style="fill:#010000;fill-opacity:1;fill-rule:nonzero;stroke:none"
       d="m 135.46868,471.16457 c 0,0.97958 -2.6958,1.77514 -6.0229,1.77514 -3.3271,0 -6.0264,-0.79556 -6.0264,-1.77514 0,-0.97959 2.6993,-1.77514 6.0264,-1.77514 3.3271,0 6.0229,0.79555 6.0229,1.77514"
       inkscape:connector-curvature="0" />
    <path
       id="path4900"
       style="fill:#010000;fill-opacity:1;fill-rule:nonzero;stroke:none"
       d="m 129.44548,469.96118 c -3.5663,0 -5.3723,0.87671 -5.4578,1.21047 0.085,0.31891 1.8915,1.19562 5.4578,1.19562 3.5664,0 5.3701,-0.87671 5.4544,-1.20933 -0.084,-0.32005 -1.888,-1.19676 -5.4544,-1.19676 m 0,3.54913 c -3.1767,0 -6.596,-0.73383 -6.596,-2.34551 0,-1.61169 3.4193,-2.34666 6.596,-2.34666 3.1756,0 6.5927,0.73497 6.5927,2.34666 0,1.61168 -3.4171,2.34551 -6.5927,2.34551"
       inkscape:connector-curvature="0" />
    <path
       id="path4904"
       style="fill:#010000;fill-opacity:1;fill-rule:nonzero;stroke:none"
       d="m 73.665376,464.62387 c 10.126,1.17276 10.0793,4.44185 10.0793,6.32443 0,1.81401 -0.1493,4.90821 -9.9061,6.07411 -9.2794,1.10875 -28.1516,0.33263 -29.4961,0.33263 -2.7608,0 -4.9975,-2.86903 -4.9975,-6.40674 0,-3.53884 2.2367,-6.40787 4.9975,-6.40787 1.2887,0 20.4206,-0.94644 29.3229,0.0835"
       inkscape:connector-curvature="0" />
    <path
       id="path4908"
       style="fill:#ffffff;fill-opacity:1;fill-rule:nonzero;stroke:none"
       d="m 61.675876,465.28637 c -6.1768,0 -12.4584,0.22861 -15.4767,0.33834 -0.9948,0.0354 -1.6499,0.0594 -1.8573,0.0594 -2.1273,0 -3.8581,2.36152 -3.8581,5.26484 0,2.90218 1.7308,5.2637 3.8581,5.2637 0.1971,0 0.7646,0.016 1.6191,0.04 2.5124,0.0731 7.7367,0.22403 13.2435,0.22403 6.3511,0 11.2301,-0.19889 14.5002,-0.58981 8.9,-1.06302 8.9,-3.58342 8.9,-4.93793 0,-1.56482 9e-4,-4.13894 -9.0698,-5.18939 -2.7118,-0.31434 -6.702,-0.47322 -11.859,-0.47322 m -2.4714,13.47643 c -5.5399,0 -10.7869,-0.15202 -13.3084,-0.22518 -0.8204,-0.0229 -1.3639,-0.0389 -1.5542,-0.0389 -3.3841,0 -6.1369,-3.38683 -6.1369,-7.54978 0,-4.16409 2.7528,-7.55091 6.1369,-7.55091 0.1971,0 0.8249,-0.024 1.7752,-0.0583 3.032,-0.10973 9.341,-0.33949 15.5588,-0.33949 5.2447,0 9.3227,0.1646 12.1199,0.48808 9.7455,1.12932 11.0888,4.24068 11.0877,7.43433 0,2.94561 -1.2967,6.08554 -10.9099,7.23544 -3.359,0.40006 -8.328,0.60466 -14.7691,0.60466"
       inkscape:connector-curvature="0" />
    <path
       id="path4912"
       style="fill:#ffffff;fill-opacity:1;fill-rule:nonzero;stroke:none"
       d="m 48.263176,477.42671 -0.883,-3.58343 c -0.4581,-1.87001 -0.4376,-4.79847 0.047,-6.52675 l 0.8409,-2.9959 1.0973,0.30862 -0.842,2.99704 c -0.4307,1.54196 -0.4478,4.26354 -0.038,5.94381 l 0.8842,3.58228 -1.1064,0.27433 z"
       inkscape:connector-curvature="0" />
    <path
       id="path4916"
       style="fill:#ffffff;fill-opacity:1;fill-rule:nonzero;stroke:none"
       d="m 57.236076,477.62365 -0.736,-3.66572 c -0.3738,-1.86659 -0.3555,-4.86935 0.042,-6.6925 l 0.695,-3.19022 1.1144,0.24347 -0.6974,3.19136 c -0.3623,1.66541 -0.3794,4.51501 -0.036,6.22271 l 0.7349,3.66572 -1.1166,0.22518 z"
       inkscape:connector-curvature="0" />
    <path
       id="path4920"
       style="fill:#ffffff;fill-opacity:1;fill-rule:nonzero;stroke:none"
       d="m 66.207876,477.64823 -1.0722,-0.3852 1.3069,-3.66344 c 0.572,-1.59911 0.556,-4.29783 -0.035,-5.89351 l -1.2693,-3.41997 1.0677,-0.39893 1.2693,3.42112 c 0.6813,1.83801 0.7007,4.83391 0.04,6.67764 l -1.3069,3.66229 z"
       inkscape:connector-curvature="0" />
    <text
       xml:space="preserve"
       style="font-size:73.72006226px;font-style:normal;font-weight:normal;line-height:125%;letter-spacing:0px;word-spacing:0px;fill:#f4d7ee;fill-opacity:1;stroke:none;font-family:Sans"
       x="472.85724"
       y="354.10522"
       id="text11106"
       sodipodi:linespacing="125%"
       transform="scale(0.69476992,1.4393254)"><tspan
         sodipodi:role="line"
         id="tspan11108"
         x="472.85724"
         y="354.10522"
         style="fill:#ffffff">YOU WIN !</tspan></text>
    <flowRoot
       xml:space="preserve"
       id="flowRoot11878"
       style="fill:black;stroke:none;stroke-opacity:1;stroke-width:1px;stroke-linejoin:miter;stroke-linecap:butt;fill-opacity:1;font-family:Sans;font-style:normal;font-weight:normal;font-size:40px;line-height:125%;letter-spacing:0px;word-spacing:0px"><flowRegion
         id="flowRegion11880"><rect
           id="rect11882"
           width="420"
           height="232.85715"
           x="262.85715"
           y="178.07646" /></flowRegion><flowPara
         id="flowPara11884" /></flowRoot>  </g>
</svg>
